<svg version="1.2" xmlns="http://www.w3.org/2000/svg" viewBox="0 0 1500 1000" width="1500" height="1000">
	<title>2795232-ai</title>
	<defs>
		<clipPath clipPathUnits="userSpaceOnUse" id="cp1">
			<path d="m1381.93 855.24h-1270v-714.38h1270z"/>
		</clipPath>
		<linearGradient id="g1" x1="610.9" y1="-86.2" x2="1967.1" y2="827.8" gradientUnits="userSpaceOnUse">
			<stop offset=".099" stop-color="#766ce7"/>
			<stop offset=".329" stop-color="#bf6fb7"/>
			<stop offset=".438" stop-color="#e07c7f"/>
			<stop offset=".799" stop-color="#efd04f"/>
		</linearGradient>
		<linearGradient id="g2" x1="768" y1="43.5" x2="989.3" y2="1029.5" gradientUnits="userSpaceOnUse">
			<stop offset=".099" stop-color="#766ce7"/>
			<stop offset=".329" stop-color="#bf6fb7"/>
			<stop offset=".438" stop-color="#e07c7f"/>
			<stop offset=".723" stop-color="#efd04f"/>
		</linearGradient>
		<linearGradient id="g3" x1="519.5" y1="1256" x2="-145.6" y2="1338.1" gradientUnits="userSpaceOnUse">
			<stop offset=".099" stop-color="#766ce7"/>
			<stop offset=".329" stop-color="#bf6fb7"/>
			<stop offset=".438" stop-color="#e07c7f"/>
			<stop offset=".723" stop-color="#efd04f"/>
		</linearGradient>
		<linearGradient id="g4" x1="365.5" y1="278.4" x2="1030.5" y2="196.3" gradientUnits="userSpaceOnUse">
			<stop offset=".099" stop-color="#766ce7"/>
			<stop offset=".329" stop-color="#bf6fb7"/>
			<stop offset=".438" stop-color="#e07c7f"/>
			<stop offset=".723" stop-color="#efd04f"/>
		</linearGradient>
		<linearGradient id="g5" x1="792" y1="1183.9" x2="126.9" y2="1266" gradientUnits="userSpaceOnUse">
			<stop offset=".099" stop-color="#766ce7"/>
			<stop offset=".329" stop-color="#bf6fb7"/>
			<stop offset=".438" stop-color="#e07c7f"/>
			<stop offset=".723" stop-color="#efd04f"/>
		</linearGradient>
		<linearGradient id="g6" x1="725.8" y1="1350.6" x2="60.8" y2="1432.7" gradientUnits="userSpaceOnUse">
			<stop offset=".099" stop-color="#766ce7"/>
			<stop offset=".329" stop-color="#bf6fb7"/>
			<stop offset=".438" stop-color="#e07c7f"/>
			<stop offset=".723" stop-color="#efd04f"/>
		</linearGradient>
		<linearGradient id="g7" x1="602.6" y1="1461.3" x2="-235.9" y2="1564.9" gradientUnits="userSpaceOnUse">
			<stop offset=".099" stop-color="#766ce7"/>
			<stop offset=".329" stop-color="#bf6fb7"/>
			<stop offset=".438" stop-color="#e07c7f"/>
			<stop offset=".723" stop-color="#efd04f"/>
		</linearGradient>
		<linearGradient id="g8" x1="649.5" y1="2272" x2="272.5" y2="2318.6" gradientUnits="userSpaceOnUse">
			<stop offset=".099" stop-color="#766ce7"/>
			<stop offset=".329" stop-color="#bf6fb7"/>
			<stop offset=".438" stop-color="#e07c7f"/>
			<stop offset=".723" stop-color="#efd04f"/>
		</linearGradient>
		<linearGradient id="g9" x1="-129.4" y1="-861.2" x2="247.7" y2="-907.8" gradientUnits="userSpaceOnUse">
			<stop offset=".099" stop-color="#766ce7"/>
			<stop offset=".329" stop-color="#bf6fb7"/>
			<stop offset=".438" stop-color="#e07c7f"/>
			<stop offset=".723" stop-color="#efd04f"/>
		</linearGradient>
		<linearGradient id="g10" x1="773.9" y1="2248.2" x2="396.9" y2="2294.8" gradientUnits="userSpaceOnUse">
			<stop offset=".099" stop-color="#766ce7"/>
			<stop offset=".329" stop-color="#bf6fb7"/>
			<stop offset=".438" stop-color="#e07c7f"/>
			<stop offset=".723" stop-color="#efd04f"/>
		</linearGradient>
		<linearGradient id="g11" x1="625.7" y1="2398.4" x2="248.7" y2="2445" gradientUnits="userSpaceOnUse">
			<stop offset=".099" stop-color="#766ce7"/>
			<stop offset=".329" stop-color="#bf6fb7"/>
			<stop offset=".438" stop-color="#e07c7f"/>
			<stop offset=".723" stop-color="#efd04f"/>
		</linearGradient>
		<linearGradient id="g12" x1="308.5" y1="-803.7" x2="685.6" y2="-850.2" gradientUnits="userSpaceOnUse">
			<stop offset=".099" stop-color="#766ce7"/>
			<stop offset=".329" stop-color="#bf6fb7"/>
			<stop offset=".438" stop-color="#e07c7f"/>
			<stop offset=".723" stop-color="#efd04f"/>
		</linearGradient>
		<linearGradient id="g13" x1="330.4" y1="-704.4" x2="707.4" y2="-751" gradientUnits="userSpaceOnUse">
			<stop offset=".099" stop-color="#766ce7"/>
			<stop offset=".329" stop-color="#bf6fb7"/>
			<stop offset=".438" stop-color="#e07c7f"/>
			<stop offset=".723" stop-color="#efd04f"/>
		</linearGradient>
		<linearGradient id="g14" x1="173.6" y1="-756" x2="550.6" y2="-802.6" gradientUnits="userSpaceOnUse">
			<stop offset=".099" stop-color="#766ce7"/>
			<stop offset=".329" stop-color="#bf6fb7"/>
			<stop offset=".438" stop-color="#e07c7f"/>
			<stop offset=".723" stop-color="#efd04f"/>
		</linearGradient>
		<linearGradient id="g15" x1="789.8" y1="2131.8" x2="412.7" y2="2178.4" gradientUnits="userSpaceOnUse">
			<stop offset=".099" stop-color="#766ce7"/>
			<stop offset=".329" stop-color="#bf6fb7"/>
			<stop offset=".438" stop-color="#e07c7f"/>
			<stop offset=".723" stop-color="#efd04f"/>
		</linearGradient>
		<linearGradient id="g16" x1="447.4" y1="-749.4" x2="824.5" y2="-796" gradientUnits="userSpaceOnUse">
			<stop offset=".099" stop-color="#766ce7"/>
			<stop offset=".329" stop-color="#bf6fb7"/>
			<stop offset=".438" stop-color="#e07c7f"/>
			<stop offset=".723" stop-color="#efd04f"/>
		</linearGradient>
		<linearGradient id="g17" x1="-146.6" y1="-787.1" x2="230.5" y2="-833.7" gradientUnits="userSpaceOnUse">
			<stop offset=".099" stop-color="#766ce7"/>
			<stop offset=".329" stop-color="#bf6fb7"/>
			<stop offset=".438" stop-color="#e07c7f"/>
			<stop offset=".723" stop-color="#efd04f"/>
		</linearGradient>
	</defs>
	<style>
		tspan { white-space:pre } 
		.s0 { fill: url(#g1) } 
		.s1 { fill: url(#g2) } 
		.s2 { fill: url(#g3) } 
		.s3 { fill: url(#g4) } 
		.s4 { fill: url(#g5) } 
		.s5 { fill: url(#g6) } 
		.s6 { fill: url(#g7) } 
		.s7 { fill: url(#g8) } 
		.s8 { fill: url(#g9) } 
		.s9 { fill: url(#g10) } 
		.s10 { fill: url(#g11) } 
		.s11 { fill: url(#g12) } 
		.s12 { fill: url(#g13) } 
		.s13 { fill: url(#g14) } 
		.s14 { fill: url(#g15) } 
		.s15 { fill: url(#g16) } 
		.s16 { fill: url(#g17) } 
	</style>
	<g id="OBJECTS">
		<g id="&lt;Clip Group&gt;" clip-path="url(#cp1)">
			<g id="&lt;Group&gt;">
				<g id="&lt;Group&gt;">
					<path id="&lt;Path&gt;" class="s0" d="m1381.9 855.2h-1270v-714.3h1270z"/>
					<g id="&lt;Group&gt;">
						<path id="&lt;Path&gt;" class="s1" d="m812.7 340.6c0 54.1-43.8 97.9-97.9 97.9-54 0-97.8-43.8-97.8-97.9 0-54 43.8-97.9 97.8-97.9 54.1 0 97.9 43.9 97.9 97.9z"/>
						<g id="&lt;Group&gt;">
							<path id="&lt;Path&gt;" class="s2" d="m109.1 903.5c-13.7-13.7-13.7-35.9 0-49.6l139-139c13.7-13.6 35.8-13.6 49.5 0 13.7 13.7 13.7 35.9 0 49.6l-139 139c-13.7 13.6-35.8 13.6-49.5 0z"/>
							<path id="&lt;Path&gt;" class="s3" d="m775.9 630.9c13.6 13.7 13.6 35.9 0 49.6l-139 139c-13.7 13.6-35.9 13.6-49.6 0-13.6-13.7-13.6-35.9 0-49.6l139-139c13.7-13.6 35.9-13.6 49.6 0z"/>
							<path id="&lt;Path&gt;" class="s4" d="m381.6 831.4c-13.7-13.7-13.7-35.9 0-49.6l139-139c13.7-13.6 35.9-13.6 49.5 0 13.7 13.7 13.7 35.9 0 49.6l-139 139c-13.6 13.6-35.8 13.6-49.5 0z"/>
							<path id="&lt;Path&gt;" class="s5" d="m315.5 998.1c-13.7-13.7-13.7-35.9 0-49.6l139-139c13.7-13.6 35.8-13.6 49.5 0 13.7 13.7 13.7 35.9 0 49.6l-139 139c-13.7 13.6-35.9 13.6-49.5 0z"/>
							<g id="&lt;Group&gt;">
								<path id="&lt;Path&gt;" class="s6" d="m60.9 856.3c-13.7-13.7-13.7-35.8 0-49.5l195.9-198.5c13.6-13.7 35.8-13.7 49.5 0 13.7 13.6 13.7 35.8 0 49.5l-195.9 198.5c-13.7 13.7-35.9 13.7-49.5 0z"/>
							</g>
						</g>
						<g id="&lt;Group&gt;">
							<path id="&lt;Path&gt;" class="s7" d="m246.5 772.6c-1.5-1.6-1.5-4.1 0-5.6l118.8-118.8c1.6-1.6 4.1-1.6 5.6 0 1.6 1.5 1.6 4 0 5.6l-118.8 118.8c-1.5 1.5-4 1.5-5.6 0z"/>
							<path id="&lt;Path&gt;" class="s8" d="m273.7 638.2c1.5 1.6 1.5 4.1 0 5.7l-118.8 118.8c-1.6 1.5-4.1 1.5-5.6 0-1.6-1.6-1.6-4.1 0-5.6l118.8-118.9c1.5-1.5 4-1.5 5.6 0z"/>
							<path id="&lt;Path&gt;" class="s9" d="m370.9 748.8c-1.6-1.6-1.6-4.1 0-5.6l118.8-118.8c1.5-1.6 4-1.6 5.6 0 1.5 1.5 1.5 4 0 5.6l-118.8 118.8c-1.6 1.5-4.1 1.5-5.6 0z"/>
							<path id="&lt;Path&gt;" class="s10" d="m222.7 898.9c-1.6-1.5-1.6-4 0-5.6l118.8-118.8c1.5-1.5 4.1-1.5 5.6 0 1.6 1.6 1.6 4.1 0 5.6l-118.8 118.8c-1.5 1.6-4.1 1.6-5.6 0z"/>
							<path id="&lt;Path&gt;" class="s11" d="m711.6 695.8c1.5 1.5 1.5 4.1 0 5.6l-118.8 118.8c-1.6 1.6-4.1 1.6-5.6 0-1.6-1.5-1.6-4.1 0-5.6l118.8-118.8c1.5-1.6 4-1.6 5.6 0z"/>
							<path id="&lt;Path&gt;" class="s12" d="m733.4 795c1.5 1.6 1.5 4.1 0 5.6l-118.8 118.8c-1.6 1.6-4.1 1.6-5.6 0-1.6-1.5-1.6-4 0-5.6l118.8-118.8c1.5-1.5 4-1.5 5.6 0z"/>
							<path id="&lt;Path&gt;" class="s13" d="m576.6 743.4c1.6 1.6 1.6 4.1 0 5.6l-118.8 118.8c-1.5 1.6-4 1.6-5.6 0-1.5-1.5-1.5-4 0-5.6l118.8-118.8c1.6-1.5 4.1-1.5 5.6 0z"/>
							<path id="&lt;Path&gt;" class="s14" d="m386.7 632.4c-1.5-1.6-1.5-4.1 0-5.7l118.8-118.8c1.6-1.5 4.1-1.5 5.6 0 1.6 1.6 1.6 4.1 0 5.7l-118.8 118.8c-1.5 1.5-4 1.5-5.6 0z"/>
							<path id="&lt;Path&gt;" class="s15" d="m850.5 750c1.5 1.6 1.5 4.1 0 5.6l-118.8 118.8c-1.6 1.6-4.1 1.6-5.6 0-1.6-1.5-1.6-4 0-5.6l118.8-118.8c1.5-1.5 4-1.5 5.6 0z"/>
							<path id="&lt;Path&gt;" class="s16" d="m256.5 712.3c1.5 1.6 1.5 4.1 0 5.6l-118.8 118.8c-1.6 1.6-4.1 1.6-5.6 0-1.6-1.5-1.6-4 0-5.6l118.8-118.8c1.5-1.5 4-1.5 5.6 0z"/>
						</g>
					</g>
				</g>
			</g>
		</g>
	</g>
</svg>